<svg width="111" height="15" fill="none" xmlns="http://www.w3.org/2000/svg"><path d="M13.296 14.064L8.56.656H4.72L8.496 10.8H4.96L6.4 5.872H2.928L.4 14.064h12.896zm11.012-5.68c0-.8-.16-1.552-.48-2.256-.299-.672-.752-1.28-1.36-1.824-.619-.523-1.36-.933-2.224-1.232-.885-.277-1.861-.416-2.928-.416h-3.152v2.528h3.152c.181 0 .373.016.576.048.213.032.475.075.784.128.566.117 1.099.41 1.6.88.512.448.768 1.141.768 2.08 0 .48-.07.901-.208 1.264-.128.352-.32.656-.576.912-.48.459-.981.747-1.504.864a7.679 7.679 0 0 1-.752.144 7.61 7.61 0 0 1-.688.032V7.088h-3.152V14h3.152a9.466 9.466 0 0 0 2.912-.432c.438-.15.832-.325 1.184-.528a7.53 7.53 0 0 0 1.008-.672c.31-.245.576-.523.8-.832a5.413 5.413 0 0 0 .96-2.032 4.87 4.87 0 0 0 .128-1.12zm10.828 0c0-.8-.16-1.552-.48-2.256-.298-.672-.752-1.28-1.36-1.824-.618-.523-1.36-.933-2.224-1.232-.885-.277-1.861-.416-2.928-.416h-3.152v2.528h3.152a3.7 3.7 0 0 1 .576.048c.214.032.475.075.784.128.566.117 1.099.41 1.6.88.512.448.768 1.141.768 2.08 0 .48-.07.901-.208 1.264-.128.352-.32.656-.576.912-.48.459-.981.747-1.504.864a7.69 7.69 0 0 1-.752.144 7.612 7.612 0 0 1-.688.032V7.088h-3.152V14h3.152a9.467 9.467 0 0 0 2.912-.432c.438-.15.832-.325 1.184-.528a7.543 7.543 0 0 0 1.008-.672c.31-.245.576-.523.8-.832a5.418 5.418 0 0 0 .96-2.032 4.84 4.84 0 0 0 .128-1.12zm75.173 5.664v-2.976h-3.696v2.976h3.696z" fill="#42DFBF"/><path d="M44.156 6.176c0-.341-.032-.656-.096-.944a2.753 2.753 0 0 0-.288-.832c-.277-.523-.794-.933-1.552-1.232-.384-.181-.848-.31-1.392-.384a13.544 13.544 0 0 0-1.856-.112l-3.168-.016v2.528h3.168c.47 0 .896.059 1.28.176.352.139.528.421.528.848 0 .235-.122.427-.368.576a3.033 3.033 0 0 1-.784.224c-.245.01-.49.027-.736.048h-3.088v6.992h3.168V9.616c1.995 0 3.355-.31 4.08-.928.736-.64 1.104-1.477 1.104-2.512zM57.01 8.32c0-.405-.037-.795-.112-1.168a4.93 4.93 0 0 0-.352-1.104 6.017 6.017 0 0 0-1.312-1.888 5.617 5.617 0 0 0-1.936-1.232 7.182 7.182 0 0 0-1.152-.352 5.661 5.661 0 0 0-1.2-.128 5.826 5.826 0 0 0-3.008.8c-.48.277-.901.592-1.264.944a5.831 5.831 0 0 0-.96 1.184 5.566 5.566 0 0 0-.816 2.944c0 1.045.272 2.021.816 2.928.278.448.598.848.96 1.2a5.56 5.56 0 0 0 1.264.912c.928.533 1.93.8 3.008.8 1.12 0 2.128-.267 3.024-.8a5.56 5.56 0 0 0 1.264-.912 5.93 5.93 0 0 0 .976-1.2c.533-.875.8-1.85.8-2.928zm-3.344.096c0 .587-.122 1.11-.368 1.568a2.841 2.841 0 0 1-1.056 1.184 2.48 2.48 0 0 1-.672.336 2.723 2.723 0 0 1-.72.096c-.448 0-.837-.09-1.168-.272a2.574 2.574 0 0 1-.496-.304 3.33 3.33 0 0 1-.928-1.456 5.585 5.585 0 0 1-.128-.576 3.93 3.93 0 0 1 .272-2.176c.213-.49.528-.89.944-1.2.214-.139.443-.245.688-.32a2.78 2.78 0 0 1 .816-.112c.49 0 .955.144 1.392.432.438.277.79.667 1.056 1.168.245.49.368 1.035.368 1.632zm12.397-2.24c0-.341-.032-.656-.096-.944a2.747 2.747 0 0 0-.288-.832c-.278-.523-.795-.933-1.552-1.232-.384-.181-.848-.31-1.392-.384a13.542 13.542 0 0 0-1.856-.112l-3.168-.016v2.528h3.168c.469 0 .896.059 1.28.176.352.139.528.421.528.848 0 .235-.123.427-.368.576a3.03 3.03 0 0 1-.784.224c-.246.01-.491.027-.736.048H57.71v6.992h3.168V9.616c1.994 0 3.354-.31 4.08-.928.736-.64 1.104-1.477 1.104-2.512zm10.085 7.872V2.672h-3.136v8.8H71.94c-.533 0-.965-.07-1.296-.208-.298-.128-.485-.32-.56-.576a1.98 1.98 0 0 1-.112-.48L69.94 9.6V2.672h-3.136v8.864c0 .47.123.907.368 1.312.256.352.635.635 1.136.848.48.235 1.099.352 1.856.352h5.984zm8.241 0v-2.56h-4.448V2.624h-3.168v11.424h7.616zm11.724 0L92.08 2.656h-3.264l3.216 8.624h-3.008l1.232-4.192h-2.944l-2.144 6.96h10.944zm9.481-8.576a2.852 2.852 0 0 0-.208-.944 2.052 2.052 0 0 0-.304-.464 2.447 2.447 0 0 0-.48-.448 2.824 2.824 0 0 0-.672-.368 7.147 7.147 0 0 0-2.064-.512 14.78 14.78 0 0 0-1.456-.064h-3.168v2.512h3.168c.299 0 .667.064 1.104.192.469.128.704.405.704.832 0 .33-.235.55-.704.656-.213.053-.416.09-.608.112a10.97 10.97 0 0 1-.496.048l-3.152.032V9.6h3.216c.523 0 .939.176 1.248.528.32.384.485.853.496 1.408v2.512h3.008V11.28a5.35 5.35 0 0 0-.048-.752 2.298 2.298 0 0 0-.128-.592 1.903 1.903 0 0 0-.48-.832 8.592 8.592 0 0 0-.976-.72c.181-.085.357-.176.528-.272.171-.107.325-.213.464-.32a2.553 2.553 0 0 0 .72-.912 2.07 2.07 0 0 0 .224-.64 4.27 4.27 0 0 0 .064-.768z" fill="#fff"/></svg>