<svg width="331" height="91" fill="none" xmlns="http://www.w3.org/2000/svg"><rect width="331" height="91" rx="15" fill="#4E37B2"/><mask id="a" maskUnits="userSpaceOnUse" x="0" y="0" width="331" height="91"><path d="M0 15C0 6.716 6.716 0 15 0h301c8.284 0 15 6.716 15 15v61c0 8.284-6.716 15-15 15H15C6.716 91 0 84.284 0 76V15z" fill="#2463F6"/></mask><g mask="url(#a)" fill="#432BAA"><path opacity=".5" d="M38.73 130.682L179.685-1.723a11.866 11.866 0 0 0 3.743-8.651c0-6.486-5.206-11.77-11.691-11.867L9.866-24.664A15 15 0 0 0-5.164-12.07L-22.159 92.538a15 15 0 0 0 6.265 14.736l35.811 24.805a15 15 0 0 0 18.811-1.397z"/><path opacity=".5" d="M-15.413 83.298L74.423-1.036a7.812 7.812 0 0 0-5.23-13.507L-33.02-16.072A15 15 0 0 0-48.05-3.48l-9.964 61.3a15 15 0 0 0 6.268 14.74l17.53 12.135a15 15 0 0 0 18.803-1.397z"/></g></svg>