<svg width="60" height="55" fill="none" xmlns="http://www.w3.org/2000/svg"><ellipse cx="2.068" cy="2.068" rx="2.068" ry="2.068" fill="#42DFBF"/><ellipse cx="13.107" cy="2.068" rx="2.068" ry="2.068" fill="#42DFBF"/><ellipse cx="24.147" cy="2.068" rx="2.068" ry="2.068" fill="#42DFBF"/><ellipse cx="35.188" cy="2.068" rx="2.068" ry="2.068" fill="#42DFBF"/><ellipse cx="46.228" cy="2.068" rx="2.068" ry="2.068" fill="#42DFBF"/><ellipse cx="57.269" cy="2.068" rx="2.068" ry="2.068" fill="#42DFBF"/><ellipse cx="2.068" cy="12.04" rx="2.068" ry="2.068" fill="#42DFBF"/><ellipse cx="13.107" cy="12.04" rx="2.068" ry="2.068" fill="#42DFBF"/><ellipse cx="24.148" cy="12.04" rx="2.068" ry="2.068" fill="#42DFBF"/><ellipse cx="35.189" cy="12.04" rx="2.068" ry="2.068" fill="#42DFBF"/><ellipse cx="46.228" cy="12.04" rx="2.068" ry="2.068" fill="#42DFBF"/><ellipse cx="57.269" cy="12.04" rx="2.068" ry="2.068" fill="#42DFBF"/><ellipse cx="2.068" cy="22.013" rx="2.068" ry="2.068" fill="#42DFBF"/><ellipse cx="13.107" cy="22.013" rx="2.068" ry="2.068" fill="#42DFBF"/><ellipse cx="24.148" cy="22.013" rx="2.068" ry="2.068" fill="#42DFBF"/><ellipse cx="35.189" cy="22.013" rx="2.068" ry="2.068" fill="#42DFBF"/><ellipse cx="46.228" cy="22.013" rx="2.068" ry="2.068" fill="#42DFBF"/><ellipse cx="57.269" cy="22.013" rx="2.068" ry="2.068" fill="#42DFBF"/><ellipse cx="2.068" cy="31.986" rx="2.068" ry="2.068" fill="#42DFBF"/><ellipse cx="13.107" cy="31.986" rx="2.068" ry="2.068" fill="#42DFBF"/><ellipse cx="24.148" cy="31.986" rx="2.068" ry="2.068" fill="#42DFBF"/><ellipse cx="35.189" cy="31.986" rx="2.068" ry="2.068" fill="#42DFBF"/><ellipse cx="46.228" cy="31.986" rx="2.068" ry="2.068" fill="#42DFBF"/><ellipse cx="57.269" cy="31.986" rx="2.068" ry="2.068" fill="#42DFBF"/><ellipse cx="2.068" cy="41.959" rx="2.068" ry="2.068" fill="#42DFBF"/><ellipse cx="13.107" cy="41.959" rx="2.068" ry="2.068" fill="#42DFBF"/><ellipse cx="24.147" cy="41.959" rx="2.068" ry="2.068" fill="#42DFBF"/><ellipse cx="35.188" cy="41.959" rx="2.068" ry="2.068" fill="#42DFBF"/><ellipse cx="46.228" cy="41.959" rx="2.068" ry="2.068" fill="#42DFBF"/><ellipse cx="57.269" cy="41.959" rx="2.068" ry="2.068" fill="#42DFBF"/><ellipse cx="2.068" cy="51.936" rx="2.068" ry="2.068" fill="#42DFBF"/><ellipse cx="13.107" cy="51.936" rx="2.068" ry="2.068" fill="#42DFBF"/><ellipse cx="24.147" cy="51.936" rx="2.068" ry="2.068" fill="#42DFBF"/><ellipse cx="35.188" cy="51.936" rx="2.068" ry="2.068" fill="#42DFBF"/><ellipse cx="46.228" cy="51.936" rx="2.068" ry="2.068" fill="#42DFBF"/><ellipse cx="57.269" cy="51.936" rx="2.068" ry="2.068" fill="#42DFBF"/></svg>