<svg width="16" height="16" fill="none" xmlns="http://www.w3.org/2000/svg"><path d="M8 15.11a.938.938 0 0 0 .619-.233c.646-.565 1.27-1.096 1.819-1.564l.003-.003c1.612-1.373 3.004-2.56 3.972-3.728C15.496 8.275 16 7.037 16 5.683c0-1.314-.45-2.527-1.27-3.415a4.302 4.302 0 0 0-3.2-1.393c-.923 0-1.77.292-2.514.868A5.14 5.14 0 0 0 8 2.804c-.3-.415-.64-.77-1.016-1.061A4.024 4.024 0 0 0 4.47.875a4.303 4.303 0 0 0-3.2 1.393C.45 3.156 0 4.368 0 5.683c0 1.354.504 2.592 1.587 3.899.968 1.168 2.36 2.354 3.972 3.728.55.47 1.175 1.001 1.823 1.568A.94.94 0 0 0 8 15.11zm3.53-13.298c.971 0 1.863.388 2.512 1.091.658.715 1.02 1.702 1.02 2.78 0 1.139-.422 2.156-1.37 3.3-.917 1.107-2.28 2.269-3.86 3.614l-.002.002a184.3 184.3 0 0 0-1.829 1.573 218.19 218.19 0 0 0-1.834-1.575C4.588 11.25 3.225 10.09 2.308 8.984 1.36 7.839.938 6.822.938 5.684c0-1.08.362-2.066 1.02-2.78A3.375 3.375 0 0 1 4.47 1.811c.71 0 1.364.226 1.94.672.514.398.872.9 1.082 1.252.108.18.298.288.508.288.21 0 .4-.108.508-.288.21-.352.568-.854 1.082-1.252a3.108 3.108 0 0 1 1.94-.672z" fill="#fff"/></svg>