<svg width="36" height="42" fill="none" xmlns="http://www.w3.org/2000/svg"><path d="M17.864 22.52h.271c2.487-.042 4.498-.916 5.983-2.588 3.267-3.682 2.724-9.996 2.664-10.598-.212-4.523-2.35-6.686-4.115-7.696C21.35.883 19.816.475 18.102.44h-.144c-.942 0-2.792.153-4.566 1.163-1.782 1.01-3.954 3.173-4.166 7.73-.06.602-.603 6.916 2.664 10.598 1.477 1.672 3.488 2.546 5.974 2.588zM11.491 9.546c0-.025.009-.05.009-.068.28-6.084 4.599-6.737 6.449-6.737h.101c2.29.05 6.186.984 6.449 6.737 0 .026 0 .051.008.068.009.06.602 5.83-2.096 8.867-1.069 1.205-2.495 1.8-4.37 1.816h-.084c-1.866-.017-3.3-.61-4.361-1.816-2.69-3.02-2.113-8.816-2.104-8.867z" fill="#4E37B2"/><path d="M35.437 32.992v-.025c0-.068-.008-.136-.008-.212-.051-1.68-.162-5.609-3.844-6.865l-.085-.025c-3.827-.976-7.01-3.182-7.043-3.208a1.144 1.144 0 1 0-1.315 1.876c.144.101 3.521 2.452 7.747 3.538 1.977.704 2.198 2.817 2.257 4.752 0 .076 0 .144.008.212.009.764-.042 1.943-.178 2.622-1.374.78-6.763 3.479-14.96 3.479-8.162 0-13.584-2.707-14.967-3.488-.136-.679-.196-1.858-.179-2.622 0-.068.009-.135.009-.212.06-1.934.28-4.047 2.257-4.752 4.226-1.086 7.603-3.445 7.747-3.538a1.144 1.144 0 1 0-1.315-1.875c-.034.025-3.2 2.232-7.043 3.207a.996.996 0 0 0-.085.026C.757 27.146.647 31.075.596 32.746c0 .077 0 .145-.008.212v.026c-.009.441-.017 2.707.433 3.844.084.22.237.407.44.534.255.17 6.356 4.056 16.564 4.056s16.309-3.894 16.563-4.056c.196-.127.357-.314.442-.534.424-1.129.416-3.394.407-3.836z" fill="#4E37B2"/></svg>