<svg width="33" height="33" fill="none" xmlns="http://www.w3.org/2000/svg"><g clip-path="url(#clip0)"><path d="M25.074 5.983A2.664 2.664 0 0 0 22.35 5.4a.75.75 0 0 0-.504.6l-.21 1.442a4.45 4.45 0 0 1-4.386 3.807h-3a.75.75 0 0 0-.727.569l-2.25 9a.75.75 0 0 0 .727.931h3.75a.75.75 0 0 0 .728-.569l1.357-5.43h2.925a4.864 4.864 0 0 0 4.74-3.704l.553-2.219a3.945 3.945 0 0 0-.978-3.845z" fill="#03A9F4"/><path d="M.75 30.75a.75.75 0 0 1-.728-.932l.75-2.985v-.031l.75-2.983a.75.75 0 0 1 .728-.569h1.908a1.875 1.875 0 0 1 1.82 2.33l-.188.75a1.875 1.875 0 0 1-1.82 1.42H2.086l-.607 2.431a.75.75 0 0 1-.73.569zm1.711-4.5h1.51a.375.375 0 0 0 .362-.285l.188-.75a.373.373 0 0 0-.363-.466H2.836l-.375 1.5zm6.309 4.5H7.702a2.079 2.079 0 0 1-2.017-2.583l.099-.399a2 2 0 0 1 1.95-1.52H8.8a2.079 2.079 0 0 1 2.013 2.585l-.099.399A2.001 2.001 0 0 1 8.77 30.75zm-1.63-2.218a.579.579 0 0 0 .561.718H8.77a.503.503 0 0 0 .489-.381l.099-.399a.579.579 0 0 0-.561-.718H7.729a.502.502 0 0 0-.489.38l-.099.4z" fill="#283593"/><path d="M9.75 30.75a.75.75 0 0 1-.728-.931l.75-3a.75.75 0 1 1 1.456.363l-.75 3a.75.75 0 0 1-.729.568z" fill="#283593"/><path d="M18.75 30.75a.75.75 0 0 1-.728-.932l.75-2.985v-.031l.75-2.984a.75.75 0 0 1 .727-.568h1.908a1.875 1.875 0 0 1 1.82 2.33l-.188.75a1.875 1.875 0 0 1-1.82 1.42h-1.883l-.608 2.431a.75.75 0 0 1-.729.569zm1.71-4.5h1.51a.375.375 0 0 0 .364-.285l.188-.75a.373.373 0 0 0-.364-.467h-1.323l-.375 1.502zm6.31 4.5H25.7a2.079 2.079 0 0 1-2.017-2.583l.099-.399a2 2 0 0 1 1.95-1.52H26.8a2.079 2.079 0 0 1 2.017 2.583l-.099.4a2 2 0 0 1-1.95 1.519zm-1.63-2.218a.579.579 0 0 0 .561.718h1.068a.503.503 0 0 0 .49-.381l.098-.4a.58.58 0 0 0-.56-.718h-1.069a.503.503 0 0 0-.489.381l-.099.4z" fill="#03A9F4"/><path d="M27.749 30.75a.75.75 0 0 1-.728-.932l.75-3a.75.75 0 1 1 1.457.363l-.75 3a.75.75 0 0 1-.73.569z" fill="#03A9F4"/><path d="M14.25 30a.75.75 0 0 1-.625-.335l-1.5-2.25a.75.75 0 1 1 1.248-.832l1.5 2.25A.75.75 0 0 1 14.25 30z" fill="#283593"/><path d="M12.75 32.25a.75.75 0 0 1-.577-1.23l3.75-4.5a.75.75 0 0 1 1.152.961l-3.75 4.5a.75.75 0 0 1-.576.269z" fill="#283593"/><path d="M30.749 30.749a.75.75 0 0 1-.728-.931l1.5-6a.75.75 0 1 1 1.456.363l-1.5 6a.75.75 0 0 1-.728.568z" fill="#03A9F4"/><path d="M22.598 2.048A3.79 3.79 0 0 0 19.739.751h-8.49a.75.75 0 0 0-.738.616l-3 16.5a.75.75 0 0 0 .738.883h4.5a.75.75 0 0 0 .728-.568l1.359-5.432h2.413a5.958 5.958 0 0 0 5.872-5.1l.375-2.563a3.82 3.82 0 0 0-.898-3.039z" fill="#283593"/></g><defs><clipPath id="clip0"><path fill="#fff" d="M0 0h33v33H0z"/></clipPath></defs></svg>